<svg xmlns="http://www.w3.org/2000/svg" id="Group_3" data-name="Group 3" width="166.15" height="58.21" viewBox="0 0 166.15 58.21"><path id="Path_5" data-name="Path 5" d="M165.526,6.883c-.884-2.165-3.262-4.715-6.3-4.615a.22.22,0,0,0,.025.067c-.448.008-.9.021-1.34.021Q82.953,2.362,8,2.348c-.293,0-.657.193-.9-.168h-.18A7.351,7.351,0,0,0,3.43,3.42,8.2,8.2,0,0,0,.013,10.471Q-.019,31.225,0,51.983A14.82,14.82,0,0,0,.239,54.3c.452,2.768,3.538,6.357,7,6.076q75.841,0,151.69,0a5.837,5.837,0,0,0,2.613-.49,7.784,7.784,0,0,0,4.59-7.4q.031-21.231.017-42.453A8.129,8.129,0,0,0,165.526,6.883Zm-24.355,8.392c0-.557.3-.519.683-.532.436-.021.657.063.641.578-.038,1.122-.013,2.253-.013,3.5.26-.214.4-.356.561-.469a2.452,2.452,0,0,1,2.609-.339,2.334,2.334,0,0,1,1.357,2.157c.054,1.369,0,2.747.033,4.121.013.523-.281.469-.62.477-.394.013-.678.013-.657-.54.042-1.131.021-2.27.008-3.4-.013-1.277-.578-1.977-1.562-1.972a1.75,1.75,0,0,0-1.721,1.96c-.013,1.131-.029,2.27.008,3.4.017.536-.247.561-.653.557-.389,0-.67.008-.666-.544Q141.2,19.753,141.171,15.274ZM126.544,17.95c.444.017.863-.034.745.62a2.086,2.086,0,0,0,.038.377,2.672,2.672,0,0,1,3.191-.963,2.568,2.568,0,0,1,1.495,2.705c.008,1.164-.017,2.328.013,3.492.013.473-.138.616-.607.6-.444-.013-.72-.038-.7-.611.042-1.1.021-2.207.013-3.312-.013-1.34-.519-1.993-1.516-2-1.08-.008-1.75.758-1.759,2.018-.008,1.047-.008,2.09,0,3.136,0,.44.05.766-.611.787-.724.021-.657-.356-.657-.821,0-1.792-.021-3.58-.034-5.373C126.154,18.31,125.949,17.925,126.544,17.95Zm-4.858-.159a3.255,3.255,0,0,1,3.266,3.576,3.37,3.37,0,0,1-3.434,3.555,3.284,3.284,0,0,1-3.262-3.593A3.325,3.325,0,0,1,121.686,17.791Zm-30.1-3.065c.607-.017.586.293.582.712-.013,1.466,0,2.931,0,4.393,0,1.436-.021,2.868.013,4.3.013.515-.151.645-.653.645-.519,0-.641-.172-.641-.666.021-2.9.029-5.8,0-8.7C90.878,14.847,91.058,14.743,91.59,14.726ZM30.259,17.532a9.471,9.471,0,0,1,7.894-7.785c.532-.088.536-.05.528,1.156a9.212,9.212,0,0,1-6.365,8.371C30.238,19.805,29.983,19.625,30.259,17.532Zm16.863,23.84a25.289,25.289,0,0,1-4.765,7.919c-2.085,2.379-4.133,2.935-7.043,1.7a10.277,10.277,0,0,0-8.543.038c-2.814,1.219-4.661.766-6.738-1.541a25.675,25.675,0,0,1-6.851-17.006,13.642,13.642,0,0,1,1.96-7.6c2.655-4.313,7.4-6.055,12.048-4.129a7.9,7.9,0,0,0,6.646,0A10.1,10.1,0,0,1,44.606,22.1c.071.054.138.117.205.176.532.444,1.185.934,1.311,1.545.138.678-.791.858-1.248,1.252A9.168,9.168,0,0,0,46.658,40.09C47.315,40.433,47.357,40.726,47.123,41.371ZM57.047,24.14q-.006-2.06,0-4.121V15.991c0-.331-.05-.666.448-.7a13.418,13.418,0,0,1,4.012.054A4.066,4.066,0,0,1,64.865,19.4c.063,2.776-1.064,4.539-3.317,5.163a13.963,13.963,0,0,1-4.091.205C56.984,24.759,57.047,24.433,57.047,24.14ZM69.953,45.107c-.469.038-.674-.138-.817-.6-.364-1.193-.829-2.353-1.185-3.543a.743.743,0,0,0-.879-.624c-1.34.038-2.688.042-4.028,0-.557-.017-.762.18-.913.7-.348,1.193-.775,2.366-1.177,3.547-.142.419-1.8.791-2.077.456-.209-.251.05-.507.126-.733,1.2-3.568,2.433-7.127,3.652-10.691.348-1.009.7-2.018,1.009-3.04a.757.757,0,0,1,.875-.628c1.742.008,1.742-.017,2.328,1.7q2.18,6.35,4.355,12.709c.075.218.13.44.222.741C70.9,45.1,70.422,45.073,69.953,45.107Zm-.938-20.184a3.287,3.287,0,0,1-3.333-3.53,3.345,3.345,0,0,1,3.379-3.6A3.253,3.253,0,0,1,72.395,21.3,3.387,3.387,0,0,1,69.015,24.923ZM74.2,18.934c.377,1.436.758,2.873,1.164,4.418.515-1.591,1.005-3.107,1.491-4.623.121-.377.1-.771.733-.8.666-.025.7.385.829.8.456,1.5.917,3,1.407,4.6.419-1.508.808-2.931,1.2-4.355.293-1.055.293-1.055,1.541-.988l-2.094,6.482c-.155.477-.549.214-.833.276-.415.092-.494-.23-.582-.511-.373-1.185-.733-2.383-1.122-3.564-.1-.293-.05-.67-.41-.858-.519,1.524-1.047,3-1.508,4.506-.138.452-.4.423-.733.44-.364.017-.607-.046-.724-.461-.6-2.077-1.235-4.15-1.855-6.223C73.919,17.825,73.915,17.829,74.2,18.934ZM83.45,42.221a4.732,4.732,0,0,1-7.881,1.625c0,1.709-.029,3.342.013,4.971.017.595-.155.762-.745.745-1.3-.029-1.3,0-1.3-1.252-.017-4.481-.021-8.961-.059-13.442,0-.482.088-.771.611-.641.44.113,1.235-.452,1.2.611-.013.343.046.687.084,1.206a4.457,4.457,0,0,1,4.447-2.018,4.633,4.633,0,0,1,3.987,4.225A7.7,7.7,0,0,1,83.45,42.221Zm1.319-18.074c.021.536-.184.637-.67.632-.452,0-.611-.1-.611-.59.013-1.939-.013-3.878-.05-5.817-.008-.322.071-.469.373-.4.268.059.7-.251.766.3.025.2.025.389.046.716a3.146,3.146,0,0,1,1.252-1.009,2.366,2.366,0,0,1,3.363,1.96c.121,1.453.046,2.923.088,4.38.013.549-.343.435-.653.444-.335.008-.653.054-.641-.469.029-1.193.021-2.387,0-3.58-.021-1.244-.57-1.876-1.562-1.859a1.747,1.747,0,0,0-1.713,1.893C84.748,21.878,84.731,23.013,84.769,24.148ZM95.694,43.231a4.54,4.54,0,0,1-7.337.44c0,1.863-.025,3.53.013,5.2.013.544-.121.779-.687.687a1.975,1.975,0,0,0-.628,0c-.549.084-.7-.117-.7-.678.029-3.258.025-6.516.013-9.774-.008-1.432-.059-2.868-.1-4.3-.008-.322-.038-.678.41-.565.477.117,1.189-.452,1.415.4a7.923,7.923,0,0,1,.1,1.386,4.545,4.545,0,0,1,3-1.96,4.28,4.28,0,0,1,4.732,2.261A6.669,6.669,0,0,1,95.694,43.231Zm1-18.308a3.3,3.3,0,0,1-3.275-3.509,3.367,3.367,0,0,1,3.367-3.622,3.281,3.281,0,0,1,3.375,3.492A3.424,3.424,0,0,1,96.691,24.923Zm6.08-.008a1.944,1.944,0,0,1-1.838-1.332,2.1,2.1,0,0,1,.678-2.341,4.434,4.434,0,0,1,2.328-.812c.318-.038.879.235.942-.36a1.109,1.109,0,0,0-.833-1.227,2.946,2.946,0,0,0-1.922.138c-.214.071-.5.423-.67-.134-.13-.423.008-.582.36-.712a4.178,4.178,0,0,1,2.709-.214,2.071,2.071,0,0,1,1.583,1.847c.188,1.545-.059,3.107.168,4.652.046.306-.142.373-.368.331-.285-.05-.691.214-.808-.289-.033-.13-.046-.264-.08-.465A2.973,2.973,0,0,1,102.771,24.914Zm9.644,16.771a4.275,4.275,0,0,1-3.677,3.509c-.528.092-1.064.126-1.491.176a10.315,10.315,0,0,1-3.413-.7c-1.055-.44-.276-1.1-.167-1.6.147-.7.553-.075.779.008a6.393,6.393,0,0,0,4.271.369,2.269,2.269,0,0,0,1.7-1.88,2.408,2.408,0,0,0-.938-2.454,9.343,9.343,0,0,0-2.052-1.059,17.88,17.88,0,0,1-1.767-.829,3.731,3.731,0,0,1-2.031-3.949,3.848,3.848,0,0,1,2.839-3.241,7.219,7.219,0,0,1,4.908.172c.984.369.163.972.1,1.449-.071.582-.423.247-.712.147a5.634,5.634,0,0,0-3.5-.26,2.1,2.1,0,0,0-1.654,1.792,2.167,2.167,0,0,0,1.039,2.219,9.84,9.84,0,0,0,1.834.909c.519.214,1.039.444,1.533.708A3.988,3.988,0,0,1,112.415,41.685Zm.875-16.914c-.356-.034-.758.067-.687-.519a2.179,2.179,0,0,0-.038-.448c-1.286,1.2-2.533,1.428-3.727.716a3.87,3.87,0,0,1-1.374-4.3c.645-2.332,2.9-3.111,4.975-1.6,0-1.156.029-2.2-.013-3.245-.021-.536.193-.628.67-.641.536-.013.636.184.636.67q-.006,4.391.046,8.777C113.793,24.567,113.78,24.818,113.29,24.772Zm6.461,10.955a.862.862,0,0,0-.18,0c-.683.013-1.591-.235-1.989.109-.473.406-.138,1.34-.151,2.044-.029,1.286-.025,2.571,0,3.853.025,1.528.5,1.964,2.01,1.905.293-.013.745-.2.657.381-.063.423.385,1.022-.469,1.206-2.613.561-4.133-.611-4.154-3.283-.017-1.822-.038-3.647.013-5.465.017-.641-.163-.808-.787-.766-.858.054-1.173-.419-.9-1.24.155-.456.561-.26.829-.235.657.063.867-.13.85-.825-.042-1.859,0-1.859,1.939-2.295,0,.838.046,1.616-.013,2.387-.046.624.2.766.758.724.536-.042,1.076.017,1.612-.017.683-.046.477.44.494.783C120.3,35.362,120.4,35.827,119.752,35.727Zm5.2,9.3a5.006,5.006,0,0,1-3.308-3.991,5.713,5.713,0,0,1,3.471-6.75c3.781-1.273,7.186,1.29,7.148,5.385A5.417,5.417,0,0,1,124.948,45.023Zm14.116-9.083c-1.156-.042-2.09,1.11-2.282,2.479a38.47,38.47,0,0,0-.1,5.812c.008.8-.264.946-.959.884-.586-.05-1.11.121-1.089-.867.071-3.1.021-6.21,0-9.313,0-.465-.021-.85.62-.72.465.1,1.244-.339,1.147.7-.038.4-.008.8-.008,1.21a3.881,3.881,0,0,1,2.919-2.152c.553-.075.8.071.8.708C140.116,35.454,140.183,35.982,139.065,35.94ZM138.487,22.7c.021.745.306,1.286,1.2,1.164.251-.038.482-.063.494.306.008.306.042.544-.364.674a1.834,1.834,0,0,1-2.508-1.52,26.036,26.036,0,0,1-.071-3.748c0-.456-.063-.762-.62-.683-.369.054-.44-.155-.444-.482-.008-.343.1-.507.452-.456.44.063.7-.071.6-.565-.172-.9.2-1.34,1.219-1.332.013.188.025.364.029.536.021,1.29.021,1.3,1.256,1.353.364.013.528.067.528.486s-.193.494-.544.469c-.239-.017-.477.013-.716-.008-.369-.029-.54.092-.532.5C138.487,20.5,138.457,21.6,138.487,22.7Zm12.177,16.88c-.067.419-.268.444-.6.44-1.1-.013-2.207,0-3.312,0-1.043,0-2.09.017-3.132-.008-.507-.013-.737.029-.628.67a3.412,3.412,0,0,0,3.442,3.107,7.966,7.966,0,0,0,2.734-.369c.276-.084.624-.3.628.2,0,.385.57.821-.042,1.173-2.245,1.281-6.26.528-7.705-1.445a6.674,6.674,0,0,1,.8-8.136,4.987,4.987,0,0,1,5.582-.666A5.314,5.314,0,0,1,150.664,39.583Zm3.044-18.032c-.624-.029-1.252-.008-1.88-.008a12.105,12.105,0,0,1-1.608-.013c-.9-.121-.821.373-.653.934.373,1.235,1.73,1.734,3.459,1.3.272-.067.607-.318.741.222.084.343.092.549-.318.657-1.524.4-3.015.549-4.28-.649a4.019,4.019,0,0,1-.582-4.338,3.069,3.069,0,0,1,3.518-1.8,2.972,2.972,0,0,1,2.14,3.2C154.215,21.455,154.085,21.573,153.709,21.552Z" transform="translate(0 -2.18)" fill="#5d5c5c"></path><path id="Path_6" data-name="Path 6" d="M169.3,2.18H16.97a2.523,2.523,0,0,0,1.149.087q75.527.006,151.054,0c.046,0,.088,0,.13,0A.2.2,0,0,1,169.3,2.18Z" transform="translate(-9.973 -2.18)" fill="#5d5c5c"></path><path id="Path_7" data-name="Path 7" d="M183.269,81.955a3.111,3.111,0,0,0-2.8,2.911,18.669,18.669,0,0,0-.021,2.2,2.89,2.89,0,0,0,2.478,2.87,2.94,2.94,0,0,0,3.253-1.686,5.511,5.511,0,0,0,.511-2.375,5.419,5.419,0,0,0-.338-1.814A2.982,2.982,0,0,0,183.269,81.955Z" transform="translate(-104.825 -48.454)" fill="#5d5c5c"></path><path id="Path_8" data-name="Path 8" d="M214.039,81.94a3.142,3.142,0,0,0-3.006,2.61,11.027,11.027,0,0,0-.1,1.575l.029,0v.705a3.035,3.035,0,0,0,5.938,1.01,5.813,5.813,0,0,0,.206-3.035A3.168,3.168,0,0,0,214.039,81.94Z" transform="translate(-122.548 -48.456)" fill="#5d5c5c"></path><path id="Path_9" data-name="Path 9" d="M152.891,75.46c-.194-.59-.355-1.192-.528-1.789-.73,2.09-1.464,4.107-2.165,6.131-.14.4.082.429.392.429,1.084-.008,2.173-.021,3.261,0,.507.012.676-.058.462-.627C153.794,78.243,153.349,76.849,152.891,75.46Z" transform="translate(-87.252 -43.674)" fill="#5d5c5c"></path><path id="Path_10" data-name="Path 10" d="M298.4,81.78a2.823,2.823,0,0,0-2.684,1.517,5.108,5.108,0,0,0-.124,4.894,2.879,2.879,0,0,0,2.639,1.757A2.942,2.942,0,0,0,301,88.258a4.443,4.443,0,0,0,.561-2.363,4.722,4.722,0,0,0-.6-2.536A2.8,2.8,0,0,0,298.4,81.78Z" transform="translate(-171.406 -48.362)" fill="#5d5c5c"></path><path id="Path_11" data-name="Path 11" d="M344.132,81.654a3.063,3.063,0,0,0-2.532,3.068c1.732,0,3.459-.008,5.183.008.379,0,.4-.148.388-.47A2.574,2.574,0,0,0,344.132,81.654Z" transform="translate(-198.198 -48.33)" fill="#5d5c5c"></path><path id="Path_12" data-name="Path 12" d="M144.285,40.478c.437-1.851-.008-3.5-1.216-4.288a5.013,5.013,0,0,0-3.4-.573c-.4.041-.421.309-.421.631.012,1.027,0,2.058,0,3.084V41.1c0,2.276,0,2.276,2.293,1.9A3.292,3.292,0,0,0,144.285,40.478Z" transform="translate(-80.909 -21.548)" fill="#5d5c5c"></path><path id="Path_13" data-name="Path 13" d="M261.792,41.92a1.81,1.81,0,0,0-2.173,1.072,3.24,3.24,0,0,0,.128,3.039,1.677,1.677,0,0,0,1.9.8,1.711,1.711,0,0,0,1.427-1.48,6.339,6.339,0,0,0,.008-.969h.021c0-.235.012-.47,0-.705A1.774,1.774,0,0,0,261.792,41.92Z" transform="translate(-150.679 -25.222)" fill="#5d5c5c"></path><path id="Path_14" data-name="Path 14" d="M228.638,41.838a1.8,1.8,0,0,0-1.987.788,3.325,3.325,0,0,0,0,3.414,1.844,1.844,0,0,0,3.15-.091,2.8,2.8,0,0,0,.416-1.587,4.148,4.148,0,0,0-.062-.788A2.032,2.032,0,0,0,228.638,41.838Z" transform="translate(-131.43 -25.177)" fill="#5d5c5c"></path><path id="Path_15" data-name="Path 15" d="M160.619,42.364a2.864,2.864,0,0,0-.643,2.2,1.754,1.754,0,0,0,.049.528,2.061,2.061,0,0,0,1.546,1.724A1.787,1.787,0,0,0,163.543,46a3.323,3.323,0,0,0-.033-3.418A1.854,1.854,0,0,0,160.619,42.364Z" transform="translate(-92.958 -25.167)" fill="#5d5c5c"></path><path id="Path_16" data-name="Path 16" d="M287.5,46.84a1.813,1.813,0,0,0,1.781-1.307,3.087,3.087,0,0,0-.194-2.862,1.846,1.846,0,0,0-2.589-.631,2.493,2.493,0,0,0-1.014,2.218,3.456,3.456,0,0,0,.181,1.208A1.893,1.893,0,0,0,287.5,46.84Z" transform="translate(-165.887 -25.153)" fill="#5d5c5c"></path><path id="Path_17" data-name="Path 17" d="M246.249,47.83a3.432,3.432,0,0,0-1.777.379,1.241,1.241,0,0,0-.544,1.526c.144.6.631.713,1.171.7.977-.033,1.521-.647,1.55-1.8C246.513,48.4,246.942,47.826,246.249,47.83Z" transform="translate(-141.717 -28.7)" fill="#5d5c5c"></path><path id="Path_18" data-name="Path 18" d="M359.141,41.661a1.652,1.652,0,0,0-1.8.821c-.186.289-.458.643-.272.969.144.256.536.078.816.1.264.021.528,0,.792,0a11.168,11.168,0,0,1,1.233.008c.532.058.594-.19.5-.618A1.532,1.532,0,0,0,359.141,41.661Z" transform="translate(-207.254 -25.099)" fill="#5d5c5c"></path></svg>