<svg xmlns="http://www.w3.org/2000/svg" id="Group_4" data-name="Group 4" width="186.289" height="58.212" viewBox="0 0 186.289 58.212"><path id="Path_19" data-name="Path 19" d="M644.424,33.553c1.765.033,2.911-1.249,2.936-3.286.029-2.058-1.052-3.393-2.779-3.439-1.781-.045-2.886,1.2-2.911,3.278S642.709,33.52,644.424,33.553Z" transform="translate(-547.379 -15.766)" fill="#5d5c5c"></path><path id="Path_20" data-name="Path 20" d="M599.263,6.581A6.236,6.236,0,0,0,594.608.293a12.392,12.392,0,0,0-3.179-.276Q523.438-.008,455.447,0,437.6,0,419.756.013c-4.119.008-6.762,2.7-6.762,6.8q-.006,22.185,0,44.375c0,4.441,2.573,7.026,7,7.026H524.2q34.023,0,68.046-.016a8.843,8.843,0,0,0,2.8-.392c2.7-.919,4.21-3.245,4.21-6.375q.025-18.14.008-36.285C599.271,12.292,599.3,9.435,599.263,6.581Zm-83.69,3.393c.664.367,1.241.5,1.5.858,1.1,1.5,2.095,3.072,3.142,4.61.206.309.441.6.883,1.179,0-2.041-.029-3.723.021-5.406.008-.334.313-.66.486-.99.194.305.557.606.565.911.049,2.445.029,4.894.029,7.3a1.1,1.1,0,0,1-1.658-.5,52.853,52.853,0,0,0-3.938-5.43v4.54a3.428,3.428,0,0,1-.021.944c-.074.239-.326.425-.5.631-.169-.206-.482-.412-.487-.618C515.56,15.479,515.573,12.948,515.573,9.975Zm-5.5.107c2.466-.012,4.107,1.757,4.074,4.383-.033,2.606-1.637,4.3-4.049,4.288s-4-1.736-3.991-4.329C506.114,11.768,507.64,10.1,510.077,10.082Zm-16.984,1.06c-.012-.825.3-1.06,1.113-.816v8.205c-.816.239-1.121.016-1.113-.759C493.122,15.562,493.126,13.352,493.093,11.142Zm-18.085-.915c1.855,0,3.666-.012,5.476.021.19,0,.375.289.561.441-.206.173-.408.487-.618.495-1.377.045-2.758.025-4.226.025v2.54c1.216,0,2.4-.041,3.567.029.322.016.627.35.94.54-.309.157-.606.429-.919.441-1.175.054-2.355.021-3.6.021v2.882c1.381,0,2.754-.029,4.123.021.3.012.594.289.891.445-.289.173-.577.487-.87.495-1.732.049-3.464.025-5.319.025v-8.42Zm-8.721,1.5a4.3,4.3,0,0,1,5.913-.849,7.5,7.5,0,0,1,1.027,1.48c-.124.153-.243.309-.363.462-.3-.169-.7-.264-.891-.52a2.932,2.932,0,0,0-3.859-.874c-1.418.821-1.905,3.476-.915,5.018a3.248,3.248,0,0,0,4.531.709c.371-.309.392-1.051.647-1.8a16.841,16.841,0,0,1-1.942-.021c-.239-.029-.454-.289-.676-.441.2-.177.392-.495.6-.507.936-.054,1.876-.025,2.94-.025,0,.977.037,1.839-.021,2.692a1.191,1.191,0,0,1-.449.755,5.052,5.052,0,0,1-6.069-.124A5,5,0,0,1,466.287,11.727ZM423.83,9.707c8.032,4.494,16.064,8.985,24.2,13.541-2.012,1.979-3.843,3.777-5.83,5.735-6.16-6.267-12.382-12.592-18.6-18.918C423.673,9.946,423.752,9.822,423.83,9.707Zm-1.419,38.623A3.662,3.662,0,0,1,421.3,46.9a2.783,2.783,0,0,1-.091-1.167Q421.2,29.4,421.2,13.059a2,2,0,0,1,.012-.59c.214-.693.462-1.377.693-2.066a9.655,9.655,0,0,1,1.563,1.047q8.479,8.572,16.914,17.182c.355.363.689.742,1.1,1.179-.379.412-.68.767-1.01,1.1Q432.05,39.3,423.616,47.661C423.29,47.991,422.593,48.449,422.412,48.329Zm3.5-.746c-.041-.037-.082-.074-.124-.107a7.839,7.839,0,0,1,.524-.639c5-5.067,10.019-10.119,14.988-15.219.792-.812,1.27-.858,2.066-.012,1.27,1.344,2.676,2.561,4.268,4.057C440.1,39.79,433.009,43.687,425.912,47.583ZM456.095,30.95c-2.325,1.357-4.692,2.651-7.071,3.917a1.24,1.24,0,0,1-1.126-.132c-1.657-1.468-3.257-3-5-4.63,2.14-2.14,3.942-3.971,5.8-5.744a1.223,1.223,0,0,1,1.126-.074c2.136,1.134,4.255,2.3,6.333,3.525A1.707,1.707,0,0,1,456.095,30.95Zm23.288,10.733a9.312,9.312,0,0,1-10.2-.977,9.765,9.765,0,0,1-2.251-12.733,9.616,9.616,0,0,1,12.353-3.389,23.541,23.541,0,0,1,2.511,1.728c-.676.664-1.155,1.134-1.7,1.67a7.078,7.078,0,0,0-9.892-.239,7.658,7.658,0,0,0-1.456,8.873,7.125,7.125,0,0,0,7.946,3.616,5.844,5.844,0,0,0,4.853-5.5h-6.457V32.574a8.316,8.316,0,0,1,.878-.091c2.3-.008,4.6.037,6.894-.025.915-.025,1.13.322,1.15,1.167C484.063,37.246,482.682,40.1,479.383,41.683Zm5.509-29.325c0-.342-.041-.689-.07-1.15-.825,0-1.46.045-2.082-.021-.219-.025-.412-.322-.614-.495.181-.157.367-.449.553-.454q2.783-.049,5.575.008c.181,0,.355.3.532.454-.2.169-.392.462-.606.487-.66.062-1.328.021-2.169.021v5.533a3.948,3.948,0,0,1-.017,1.06,3.228,3.228,0,0,1-.544.829c-.186-.272-.524-.54-.532-.816C484.871,15.995,484.9,14.176,484.892,12.358Zm6.375,30.327c-3.707-.033-6.366-2.915-6.317-6.845a6.285,6.285,0,0,1,6.539-6.482c3.756.054,6.37,2.878,6.313,6.824A6.322,6.322,0,0,1,491.266,42.685Zm7.084-31.473c-.734,0-1.389.041-2.037-.021-.239-.021-.462-.276-.693-.421.231-.19.462-.528.7-.532,1.777-.041,3.558-.033,5.335.008.215,0,.425.309.635.474-.214.161-.416.445-.643.466-.66.066-1.328.021-2.165.021,0,2.264.025,4.313-.025,6.358-.008.359-.342.713-.524,1.068-.194-.355-.544-.705-.552-1.06C498.325,15.525,498.35,13.471,498.35,11.212Zm6.672,31.473a6.366,6.366,0,0,1-6.449-6.725,6.444,6.444,0,1,1,12.881.1A6.354,6.354,0,0,1,505.021,42.685Zm19.754-.87c-.091,4.577-3.81,7.311-8.222,6.131a5.584,5.584,0,0,1-3.752-3.464c.639-.264,1.286-.528,1.921-.788,1.954,2.264,3.414,2.8,5.406,2,1.715-.68,2.474-2.222,2.325-4.981a5.854,5.854,0,0,1-4.824,1.942,5.791,5.791,0,0,1-4.35-2.791,7.362,7.362,0,0,1,.952-8.877c2.367-2.206,4.944-2.165,8.2.21.05-.462.091-.866.144-1.365H524.7a5.25,5.25,0,0,1,.091.693C524.793,34.29,524.846,38.054,524.776,41.815Zm4.4.388H527V24.076c.375-.021.722-.062,1.072-.062s.689.045,1.1.074Zm13.656-5.711H533.2a3.806,3.806,0,0,0,2.68,3.851c1.773.561,3.266-.033,4.635-1.921l1.888.763c-.606,2.128-2.779,3.534-5.41,3.492a5.8,5.8,0,0,1-5.657-3.62,6.971,6.971,0,0,1,1.122-7.781,5.746,5.746,0,0,1,6.3-1.653C541.578,30.414,543.248,33.2,542.828,36.492Zm18.93-6.676a5.421,5.421,0,0,1-5.022,5c-1.447.111-2.911.021-4.569.021v7.377h-2.3V24.192a64.378,64.378,0,0,1,7.735.066A5.094,5.094,0,0,1,561.758,29.816Zm3.814,12.4h-2.223V24.1h2.223Zm12.58-7.1c-.074,2.326-.012,4.655-.012,7.063h-2.247c-.041-.449-.074-.858-.086-1.01a16.62,16.62,0,0,1-3.732,1.439,4.263,4.263,0,0,1-5.068-3.674,4.333,4.333,0,0,1,4.379-4.729,35.56,35.56,0,0,1,4.325.223,2.521,2.521,0,0,0-1.773-2.68c-1.6-.635-3.072-.153-4.445,1.517-.606-.26-1.245-.536-2.016-.866a4.657,4.657,0,0,1,2.969-2.738C573.649,28.649,578.321,29.882,578.152,35.123Zm8.663,4.391c-.944,2.177-1.9,4.354-2.841,6.539-.821,1.9-.812,1.9-3.13,1.579.817-1.789,1.67-3.521,2.387-5.311a2.5,2.5,0,0,0,0-1.74c-1.344-3.216-2.779-6.391-4.181-9.582-.153-.35-.28-.709-.425-1.076,2.243-.511,2.354-.449,3.158,1.5.965,2.321,1.942,4.639,3.039,7.261.944-2.3,1.765-4.3,2.581-6.3.1-.256.206-.515.309-.771.816-2.025.816-2.025,3.286-1.773C589.581,33.135,588.2,36.322,586.815,39.514Z" transform="translate(-412.99 -0.001)" fill="#5d5c5c"></path><path id="Path_21" data-name="Path 21" d="M797.129,87.33c-.351-.062-.705-.078-1.06-.111-.021-.049-.037-.1-.058-.148a8.064,8.064,0,0,0-2.375.878,2.555,2.555,0,0,0-.953,1.954,2.68,2.68,0,0,0,1.5,1.571,3.553,3.553,0,0,0,4-1.286C799.5,88.526,799.19,87.693,797.129,87.33Z" transform="translate(-636.119 -51.169)" fill="#5d5c5c"></path><path id="Path_22" data-name="Path 22" d="M755.758,63.848a43.7,43.7,0,0,0-5.018-.338v6.346c1.575,0,3.039.091,4.486-.025a3.042,3.042,0,0,0,2.577-2.853A2.959,2.959,0,0,0,755.758,63.848Z" transform="translate(-611.477 -37.324)" fill="#5d5c5c"></path><path id="Path_23" data-name="Path 23" d="M708.436,76.41a3.353,3.353,0,0,0-3.406,2.94h6.927A3.271,3.271,0,0,0,708.436,76.41Z" transform="translate(-584.614 -44.904)" fill="#5d5c5c"></path><path id="Path_24" data-name="Path 24" d="M663.365,76.41c-2.2.021-3.835,1.872-3.876,4.387-.049,2.721,1.8,4.8,4.107,4.63,2.35-.169,3.892-2.161,3.769-4.87A4.053,4.053,0,0,0,663.365,76.41Z" transform="translate(-557.85 -44.904)" fill="#5d5c5c"></path><path id="Path_25" data-name="Path 25" d="M597.252,76.4a4.541,4.541,0,1,0,4.111,4.453A4.249,4.249,0,0,0,597.252,76.4Z" transform="translate(-518.918 -44.898)" fill="#5d5c5c"></path><path id="Path_26" data-name="Path 26" d="M630.386,76.42a4.242,4.242,0,0,0-4.107,4.478,4.1,4.1,0,1,0,8.164.054A4.257,4.257,0,0,0,630.386,76.42Z" transform="translate(-538.334 -44.91)" fill="#5d5c5c"></path></svg>