<svg xmlns="http://www.w3.org/2000/svg" xmlns:xlink="http://www.w3.org/1999/xlink" width="150" height="144" viewBox="0 0 150 144"><defs><filter id="Rectangle_13" x="0" y="0" width="150" height="144" filterUnits="userSpaceOnUse"><feGaussianBlur stdDeviation="6"></feGaussianBlur></filter></defs><g id="Group_331" data-name="Group 331" transform="translate(-897 -1772)"><g id="Group_330" data-name="Group 330" transform="translate(0 320)"><g transform="matrix(1, 0, 0, 1, 897, 1452)" filter="url(#Rectangle_13)"><rect id="Rectangle_13-2" data-name="Rectangle 13" width="114" height="108" rx="16" transform="translate(18 14)" fill="#27cb40"></rect></g></g><path id="Path_339" data-name="Path 339" d="M35.717,66.853a33.875,33.875,0,0,1-16.2-3.626,2.578,2.578,0,0,0-2.16-.155c-5.442,1.758-10.9,3.473-16.35,5.193-.288.092-.622.392-.889.116s.034-.6.131-.891C2,62.3,3.748,57.107,5.535,51.931a2.5,2.5,0,0,0-.179-2.26A33.385,33.385,0,0,1,29.667.388,33.626,33.626,0,0,1,67.931,27.332c3.548,17.891-9.017,36.014-27.016,38.99A36.236,36.236,0,0,1,35.717,66.853Zm-17.51-9.644a1.814,1.814,0,0,1,1.7.109,28.339,28.339,0,0,0,19.024,3.923c15.646-2.025,26.815-17.573,23.71-33.069A28.319,28.319,0,0,0,30.084,5.721C10.738,8.911.367,30.531,10.261,47.313a5.793,5.793,0,0,1,.54,5.834c-.952,2.24-1.589,4.614-2.456,7.205C11.844,59.238,15.029,58.238,18.207,57.209Zm.671-28.087a22.946,22.946,0,0,0,3.488,6.316A31.621,31.621,0,0,0,41.886,48.906a8.81,8.81,0,0,0,8.6-2.623c1.286-1.281,1.443-3,1.4-4.732a1.03,1.03,0,0,0-.7-.9q-3.266-1.569-6.544-3.119a1.481,1.481,0,0,0-2.073.591c-.724,1.015-1.569,1.945-2.361,2.909a1.335,1.335,0,0,1-1.72.385A22.565,22.565,0,0,1,27.25,31.9a1.438,1.438,0,0,1,.237-2.039A16.209,16.209,0,0,0,28.895,28.2a2.614,2.614,0,0,0,.351-3.023c-.773-1.591-1.388-3.257-2.068-4.895a3.58,3.58,0,0,0-5.856-1.153,8.984,8.984,0,0,0-2.935,6.912A9.537,9.537,0,0,0,18.878,29.122Z" transform="translate(938.18 1806.157)" fill="#fefefe"></path></g></svg>