<svg xmlns="http://www.w3.org/2000/svg" xmlns:xlink="http://www.w3.org/1999/xlink" width="500" viewBox="0 0 375 225" height="300" preserveAspectRatio="xMidYMid meet"><defs><g></g></defs><g fill="#000000" fill-opacity="1"><g transform="translate(30.660629, 69.133063)"><g><path d="M 20.875 -15.5 L 18.140625 -15.5 C 17.921875 -16.539062 17.5 -17.414062 16.875 -18.125 C 16.25 -18.84375 15.492188 -19.382812 14.609375 -19.75 C 13.734375 -20.113281 12.796875 -20.296875 11.796875 -20.296875 C 10.429688 -20.296875 9.195312 -19.953125 8.09375 -19.265625 C 6.988281 -18.578125 6.109375 -17.5625 5.453125 -16.21875 C 4.804688 -14.875 4.484375 -13.222656 4.484375 -11.265625 C 4.484375 -9.316406 4.804688 -7.671875 5.453125 -6.328125 C 6.109375 -4.984375 6.988281 -3.96875 8.09375 -3.28125 C 9.195312 -2.59375 10.429688 -2.25 11.796875 -2.25 C 12.796875 -2.25 13.734375 -2.429688 14.609375 -2.796875 C 15.492188 -3.160156 16.25 -3.695312 16.875 -4.40625 C 17.5 -5.125 17.921875 -6.003906 18.140625 -7.046875 L 20.875 -7.046875 C 20.59375 -5.503906 20.019531 -4.179688 19.15625 -3.078125 C 18.300781 -1.984375 17.238281 -1.144531 15.96875 -0.5625 C 14.695312 0.0195312 13.304688 0.3125 11.796875 0.3125 C 9.878906 0.3125 8.171875 -0.15625 6.671875 -1.09375 C 5.171875 -2.039062 3.988281 -3.378906 3.125 -5.109375 C 2.269531 -6.835938 1.84375 -8.890625 1.84375 -11.265625 C 1.84375 -13.648438 2.269531 -15.707031 3.125 -17.4375 C 3.988281 -19.164062 5.171875 -20.5 6.671875 -21.4375 C 8.171875 -22.382812 9.878906 -22.859375 11.796875 -22.859375 C 13.304688 -22.859375 14.695312 -22.566406 15.96875 -21.984375 C 17.238281 -21.398438 18.300781 -20.554688 19.15625 -19.453125 C 20.019531 -18.359375 20.59375 -17.039062 20.875 -15.5 Z M 20.875 -15.5 "></path></g></g></g><g fill="#000000" fill-opacity="1"><g transform="translate(53.203108, 69.133063)"><g><path d="M 2.734375 0 L 2.734375 -22.546875 L 5.453125 -22.546875 L 5.453125 -12.5 L 17.484375 -12.5 L 17.484375 -22.546875 L 20.21875 -22.546875 L 20.21875 0 L 17.484375 0 L 17.484375 -10.078125 L 5.453125 -10.078125 L 5.453125 0 Z M 2.734375 0 "></path></g></g></g><g fill="#000000" fill-opacity="1"><g transform="translate(76.141839, 69.133063)"><g><path d="M 3.65625 0 L 0.796875 0 L 9.078125 -22.546875 L 11.890625 -22.546875 L 20.171875 0 L 17.3125 0 L 15.03125 -6.390625 L 5.921875 -6.390625 Z M 6.78125 -8.8125 L 14.171875 -8.8125 L 10.5625 -18.984375 L 10.390625 -18.984375 Z M 6.78125 -8.8125 "></path></g></g></g><g fill="#000000" fill-opacity="1"><g transform="translate(97.099301, 69.133063)"><g><path d="M 1.5 -20.125 L 1.5 -22.546875 L 18.40625 -22.546875 L 18.40625 -20.125 L 11.3125 -20.125 L 11.3125 0 L 8.59375 0 L 8.59375 -20.125 Z M 1.5 -20.125 "></path></g></g></g><g fill="#000000" fill-opacity="1"><g transform="translate(125.717689, 69.133063)"><g><path d="M 6.828125 0 L 0.65625 -22.546875 L 3.4375 -22.546875 L 8.140625 -4.1875 L 8.359375 -4.1875 L 13.171875 -22.546875 L 16.25 -22.546875 L 21.046875 -4.1875 L 21.265625 -4.1875 L 25.984375 -22.546875 L 28.75 -22.546875 L 22.59375 0 L 19.765625 0 L 14.796875 -17.96875 L 14.625 -17.96875 L 9.640625 0 Z M 6.828125 0 "></path></g></g></g><g fill="#000000" fill-opacity="1"><g transform="translate(155.12858, 69.133063)"><g><path d="M 5.453125 -22.546875 L 5.453125 0 L 2.734375 0 L 2.734375 -22.546875 Z M 5.453125 -22.546875 "></path></g></g></g><g fill="#000000" fill-opacity="1"><g transform="translate(163.317846, 69.133063)"><g><path d="M 1.5 -20.125 L 1.5 -22.546875 L 18.40625 -22.546875 L 18.40625 -20.125 L 11.3125 -20.125 L 11.3125 0 L 8.59375 0 L 8.59375 -20.125 Z M 1.5 -20.125 "></path></g></g></g><g fill="#000000" fill-opacity="1"><g transform="translate(183.218628, 69.133063)"><g><path d="M 2.734375 0 L 2.734375 -22.546875 L 5.453125 -22.546875 L 5.453125 -12.5 L 17.484375 -12.5 L 17.484375 -22.546875 L 20.21875 -22.546875 L 20.21875 0 L 17.484375 0 L 17.484375 -10.078125 L 5.453125 -10.078125 L 5.453125 0 Z M 2.734375 0 "></path></g></g></g><g fill="#000000" fill-opacity="1"><g transform="translate(206.157359, 69.133063)"><g></g></g></g><g fill="#000000" fill-opacity="1"><g transform="translate(214.874965, 69.133063)"><g><path d="M 2.734375 0 L 2.734375 -22.546875 L 10.609375 -22.546875 C 12.179688 -22.546875 13.476562 -22.273438 14.5 -21.734375 C 15.519531 -21.191406 16.28125 -20.46875 16.78125 -19.5625 C 17.28125 -18.65625 17.53125 -17.65625 17.53125 -16.5625 C 17.53125 -15.59375 17.359375 -14.789062 17.015625 -14.15625 C 16.671875 -13.519531 16.222656 -13.019531 15.671875 -12.65625 C 15.117188 -12.289062 14.519531 -12.019531 13.875 -11.84375 L 13.875 -11.625 C 14.5625 -11.582031 15.253906 -11.335938 15.953125 -10.890625 C 16.648438 -10.453125 17.234375 -9.820312 17.703125 -9 C 18.171875 -8.175781 18.40625 -7.171875 18.40625 -5.984375 C 18.40625 -4.859375 18.144531 -3.84375 17.625 -2.9375 C 17.113281 -2.03125 16.304688 -1.3125 15.203125 -0.78125 C 14.097656 -0.257812 12.65625 0 10.875 0 Z M 5.453125 -2.421875 L 10.875 -2.421875 C 12.65625 -2.421875 13.921875 -2.765625 14.671875 -3.453125 C 15.429688 -4.148438 15.8125 -4.992188 15.8125 -5.984375 C 15.8125 -6.753906 15.613281 -7.460938 15.21875 -8.109375 C 14.832031 -8.753906 14.28125 -9.273438 13.5625 -9.671875 C 12.84375 -10.066406 11.992188 -10.265625 11.015625 -10.265625 L 5.453125 -10.265625 Z M 5.453125 -12.640625 L 10.53125 -12.640625 C 11.757812 -12.640625 12.796875 -12.992188 13.640625 -13.703125 C 14.492188 -14.410156 14.921875 -15.363281 14.921875 -16.5625 C 14.921875 -17.550781 14.578125 -18.390625 13.890625 -19.078125 C 13.203125 -19.773438 12.109375 -20.125 10.609375 -20.125 L 5.453125 -20.125 Z M 5.453125 -12.640625 "></path></g></g></g><g fill="#000000" fill-opacity="1"><g transform="translate(235.039923, 69.133063)"><g><path d="M 21.75 -11.265625 C 21.75 -8.890625 21.316406 -6.835938 20.453125 -5.109375 C 19.597656 -3.378906 18.421875 -2.039062 16.921875 -1.09375 C 15.429688 -0.15625 13.722656 0.3125 11.796875 0.3125 C 9.878906 0.3125 8.171875 -0.15625 6.671875 -1.09375 C 5.171875 -2.039062 3.988281 -3.378906 3.125 -5.109375 C 2.269531 -6.835938 1.84375 -8.890625 1.84375 -11.265625 C 1.84375 -13.648438 2.269531 -15.707031 3.125 -17.4375 C 3.988281 -19.164062 5.171875 -20.5 6.671875 -21.4375 C 8.171875 -22.382812 9.878906 -22.859375 11.796875 -22.859375 C 13.722656 -22.859375 15.429688 -22.382812 16.921875 -21.4375 C 18.421875 -20.5 19.597656 -19.164062 20.453125 -17.4375 C 21.316406 -15.707031 21.75 -13.648438 21.75 -11.265625 Z M 19.109375 -11.265625 C 19.109375 -13.222656 18.78125 -14.875 18.125 -16.21875 C 17.476562 -17.5625 16.601562 -18.578125 15.5 -19.265625 C 14.394531 -19.953125 13.160156 -20.296875 11.796875 -20.296875 C 10.429688 -20.296875 9.195312 -19.953125 8.09375 -19.265625 C 6.988281 -18.578125 6.109375 -17.5625 5.453125 -16.21875 C 4.804688 -14.875 4.484375 -13.222656 4.484375 -11.265625 C 4.484375 -9.316406 4.804688 -7.671875 5.453125 -6.328125 C 6.109375 -4.984375 6.988281 -3.96875 8.09375 -3.28125 C 9.195312 -2.59375 10.429688 -2.25 11.796875 -2.25 C 13.160156 -2.25 14.394531 -2.59375 15.5 -3.28125 C 16.601562 -3.96875 17.476562 -4.984375 18.125 -6.328125 C 18.78125 -7.671875 19.109375 -9.316406 19.109375 -11.265625 Z M 19.109375 -11.265625 "></path></g></g></g><g fill="#000000" fill-opacity="1"><g transform="translate(258.639081, 69.133063)"><g><path d="M 2.734375 0 L 2.734375 -22.546875 L 5.453125 -22.546875 L 5.453125 -2.421875 L 15.9375 -2.421875 L 15.9375 0 Z M 2.734375 0 "></path></g></g></g><g fill="#000000" fill-opacity="1"><g transform="translate(276.074269, 69.133063)"><g><path d="M 3.65625 0 L 0.796875 0 L 9.078125 -22.546875 L 11.890625 -22.546875 L 20.171875 0 L 17.3125 0 L 15.03125 -6.390625 L 5.921875 -6.390625 Z M 6.78125 -8.8125 L 14.171875 -8.8125 L 10.5625 -18.984375 L 10.390625 -18.984375 Z M 6.78125 -8.8125 "></path></g></g></g><g fill="#000000" fill-opacity="1"><g transform="translate(297.031742, 69.133063)"><g><path d="M 20.609375 -22.546875 L 20.609375 0 L 17.96875 0 L 5.6875 -17.703125 L 5.453125 -17.703125 L 5.453125 0 L 2.734375 0 L 2.734375 -22.546875 L 5.375 -22.546875 L 17.703125 -4.796875 L 17.921875 -4.796875 L 17.921875 -22.546875 Z M 20.609375 -22.546875 "></path></g></g></g><g fill="#000000" fill-opacity="1"><g transform="translate(320.366747, 69.133063)"><g><path d="M 2.734375 0 L 2.734375 -22.546875 L 5.453125 -22.546875 L 5.453125 -2.421875 L 15.9375 -2.421875 L 15.9375 0 Z M 2.734375 0 "></path></g></g></g><g fill="#000000" fill-opacity="1"><g transform="translate(337.801957, 69.133063)"><g><path d="M 2.734375 0 L 2.734375 -22.546875 L 16.34375 -22.546875 L 16.34375 -20.125 L 5.453125 -20.125 L 5.453125 -12.5 L 15.625 -12.5 L 15.625 -10.078125 L 5.453125 -10.078125 L 5.453125 -2.421875 L 16.515625 -2.421875 L 16.515625 0 Z M 2.734375 0 "></path></g></g></g><g fill="#ac3282" fill-opacity="1"><g transform="translate(37.869106, 109.516551)"><g><path d="M 13.015625 0 L 10.203125 0 L 9.171875 -3.125 L 3.984375 -3.125 L 2.953125 0 L 0.203125 0 L 4.890625 -13.5625 L 8.328125 -13.5625 Z M 6.453125 -10.734375 L 4.703125 -5.375 L 8.4375 -5.375 L 6.6875 -10.734375 Z M 6.453125 -10.734375 "></path></g></g></g><g fill="#ac3282" fill-opacity="1"><g transform="translate(51.086608, 109.516551)"><g><path d="M 6.640625 -13.5625 C 8.847656 -13.5625 10.53125 -12.992188 11.6875 -11.859375 C 12.84375 -10.722656 13.421875 -9.03125 13.421875 -6.78125 C 13.421875 -4.539062 12.84375 -2.847656 11.6875 -1.703125 C 10.53125 -0.566406 8.847656 0 6.640625 0 L 1.765625 0 L 1.765625 -13.5625 Z M 6.484375 -2.25 C 7.878906 -2.25 8.921875 -2.601562 9.609375 -3.3125 C 10.304688 -4.03125 10.65625 -5.1875 10.65625 -6.78125 C 10.65625 -8.375 10.304688 -9.523438 9.609375 -10.234375 C 8.921875 -10.953125 7.878906 -11.3125 6.484375 -11.3125 L 4.4375 -11.3125 L 4.4375 -2.25 Z M 6.484375 -2.25 "></path></g></g></g><g fill="#ac3282" fill-opacity="1"><g transform="translate(65.574839, 109.516551)"><g><path d="M 6.640625 -13.5625 C 8.847656 -13.5625 10.53125 -12.992188 11.6875 -11.859375 C 12.84375 -10.722656 13.421875 -9.03125 13.421875 -6.78125 C 13.421875 -4.539062 12.84375 -2.847656 11.6875 -1.703125 C 10.53125 -0.566406 8.847656 0 6.640625 0 L 1.765625 0 L 1.765625 -13.5625 Z M 6.484375 -2.25 C 7.878906 -2.25 8.921875 -2.601562 9.609375 -3.3125 C 10.304688 -4.03125 10.65625 -5.1875 10.65625 -6.78125 C 10.65625 -8.375 10.304688 -9.523438 9.609375 -10.234375 C 8.921875 -10.953125 7.878906 -11.3125 6.484375 -11.3125 L 4.4375 -11.3125 L 4.4375 -2.25 Z M 6.484375 -2.25 "></path></g></g></g><g fill="#ac3282" fill-opacity="1"><g transform="translate(80.06307, 109.516551)"><g></g></g></g><g fill="#ac3282" fill-opacity="1"><g transform="translate(84.543112, 109.516551)"><g><path d="M 6.625 0.1875 C 5.519531 0.1875 4.554688 -0.0546875 3.734375 -0.546875 C 2.910156 -1.035156 2.269531 -1.796875 1.8125 -2.828125 C 1.363281 -3.867188 1.140625 -5.1875 1.140625 -6.78125 C 1.140625 -8.375 1.363281 -9.6875 1.8125 -10.71875 C 2.269531 -11.757812 2.910156 -12.523438 3.734375 -13.015625 C 4.554688 -13.515625 5.519531 -13.765625 6.625 -13.765625 C 7.738281 -13.765625 8.703125 -13.515625 9.515625 -13.015625 C 10.335938 -12.523438 10.972656 -11.757812 11.421875 -10.71875 C 11.878906 -9.6875 12.109375 -8.375 12.109375 -6.78125 C 12.109375 -5.1875 11.878906 -3.867188 11.421875 -2.828125 C 10.972656 -1.796875 10.335938 -1.035156 9.515625 -0.546875 C 8.703125 -0.0546875 7.738281 0.1875 6.625 0.1875 Z M 6.625 -2.078125 C 7.226562 -2.078125 7.734375 -2.222656 8.140625 -2.515625 C 8.554688 -2.804688 8.875 -3.296875 9.09375 -3.984375 C 9.3125 -4.679688 9.421875 -5.613281 9.421875 -6.78125 C 9.421875 -7.945312 9.3125 -8.875 9.09375 -9.5625 C 8.875 -10.257812 8.554688 -10.753906 8.140625 -11.046875 C 7.734375 -11.335938 7.226562 -11.484375 6.625 -11.484375 C 6.019531 -11.484375 5.507812 -11.335938 5.09375 -11.046875 C 4.6875 -10.753906 4.375 -10.257812 4.15625 -9.5625 C 3.9375 -8.875 3.828125 -7.945312 3.828125 -6.78125 C 3.828125 -5.613281 3.9375 -4.679688 4.15625 -3.984375 C 4.375 -3.296875 4.6875 -2.804688 5.09375 -2.515625 C 5.507812 -2.222656 6.019531 -2.078125 6.625 -2.078125 Z M 6.625 -2.078125 "></path></g></g></g><g fill="#ac3282" fill-opacity="1"><g transform="translate(97.797715, 109.516551)"><g><path d="M 5.8125 0.1875 C 4.738281 0.1875 3.828125 0.0195312 3.078125 -0.3125 C 2.335938 -0.644531 1.773438 -1.117188 1.390625 -1.734375 C 1.015625 -2.347656 0.828125 -3.082031 0.828125 -3.9375 C 0.828125 -4.71875 1.019531 -5.394531 1.40625 -5.96875 C 1.800781 -6.550781 2.375 -7.003906 3.125 -7.328125 L 3.125 -7.53125 C 2.59375 -7.851562 2.1875 -8.238281 1.90625 -8.6875 C 1.625 -9.144531 1.484375 -9.675781 1.484375 -10.28125 C 1.484375 -10.96875 1.648438 -11.570312 1.984375 -12.09375 C 2.328125 -12.625 2.820312 -13.035156 3.46875 -13.328125 C 4.125 -13.617188 4.90625 -13.765625 5.8125 -13.765625 C 6.726562 -13.765625 7.507812 -13.617188 8.15625 -13.328125 C 8.800781 -13.035156 9.296875 -12.625 9.640625 -12.09375 C 9.984375 -11.570312 10.15625 -10.96875 10.15625 -10.28125 C 10.15625 -9.675781 10.007812 -9.148438 9.71875 -8.703125 C 9.4375 -8.253906 9.023438 -7.863281 8.484375 -7.53125 L 8.484375 -7.328125 C 9.273438 -7.015625 9.859375 -6.566406 10.234375 -5.984375 C 10.609375 -5.398438 10.796875 -4.71875 10.796875 -3.9375 C 10.796875 -3.082031 10.601562 -2.347656 10.21875 -1.734375 C 9.84375 -1.117188 9.285156 -0.644531 8.546875 -0.3125 C 7.804688 0.0195312 6.894531 0.1875 5.8125 0.1875 Z M 5.8125 -8.28125 C 6.351562 -8.28125 6.78125 -8.425781 7.09375 -8.71875 C 7.414062 -9.019531 7.578125 -9.4375 7.578125 -9.96875 C 7.578125 -10.5 7.414062 -10.914062 7.09375 -11.21875 C 6.78125 -11.519531 6.351562 -11.671875 5.8125 -11.671875 C 5.257812 -11.671875 4.828125 -11.519531 4.515625 -11.21875 C 4.203125 -10.914062 4.046875 -10.5 4.046875 -9.96875 C 4.046875 -9.4375 4.203125 -9.019531 4.515625 -8.71875 C 4.828125 -8.425781 5.257812 -8.28125 5.8125 -8.28125 Z M 5.8125 -2.09375 C 6.539062 -2.09375 7.101562 -2.269531 7.5 -2.625 C 7.894531 -2.988281 8.09375 -3.492188 8.09375 -4.140625 C 8.09375 -4.785156 7.894531 -5.285156 7.5 -5.640625 C 7.101562 -6.003906 6.539062 -6.1875 5.8125 -6.1875 C 5.082031 -6.1875 4.519531 -6.003906 4.125 -5.640625 C 3.726562 -5.285156 3.53125 -4.785156 3.53125 -4.140625 C 3.53125 -3.492188 3.726562 -2.988281 4.125 -2.625 C 4.519531 -2.269531 5.082031 -2.09375 5.8125 -2.09375 Z M 5.8125 -2.09375 "></path></g></g></g><g fill="#ac3282" fill-opacity="1"><g transform="translate(109.429112, 109.516551)"><g><path d="M 6.625 0.1875 C 5.519531 0.1875 4.554688 -0.0546875 3.734375 -0.546875 C 2.910156 -1.035156 2.269531 -1.796875 1.8125 -2.828125 C 1.363281 -3.867188 1.140625 -5.1875 1.140625 -6.78125 C 1.140625 -8.375 1.363281 -9.6875 1.8125 -10.71875 C 2.269531 -11.757812 2.910156 -12.523438 3.734375 -13.015625 C 4.554688 -13.515625 5.519531 -13.765625 6.625 -13.765625 C 7.738281 -13.765625 8.703125 -13.515625 9.515625 -13.015625 C 10.335938 -12.523438 10.972656 -11.757812 11.421875 -10.71875 C 11.878906 -9.6875 12.109375 -8.375 12.109375 -6.78125 C 12.109375 -5.1875 11.878906 -3.867188 11.421875 -2.828125 C 10.972656 -1.796875 10.335938 -1.035156 9.515625 -0.546875 C 8.703125 -0.0546875 7.738281 0.1875 6.625 0.1875 Z M 6.625 -2.078125 C 7.226562 -2.078125 7.734375 -2.222656 8.140625 -2.515625 C 8.554688 -2.804688 8.875 -3.296875 9.09375 -3.984375 C 9.3125 -4.679688 9.421875 -5.613281 9.421875 -6.78125 C 9.421875 -7.945312 9.3125 -8.875 9.09375 -9.5625 C 8.875 -10.257812 8.554688 -10.753906 8.140625 -11.046875 C 7.734375 -11.335938 7.226562 -11.484375 6.625 -11.484375 C 6.019531 -11.484375 5.507812 -11.335938 5.09375 -11.046875 C 4.6875 -10.753906 4.375 -10.257812 4.15625 -9.5625 C 3.9375 -8.875 3.828125 -7.945312 3.828125 -6.78125 C 3.828125 -5.613281 3.9375 -4.679688 4.15625 -3.984375 C 4.375 -3.296875 4.6875 -2.804688 5.09375 -2.515625 C 5.507812 -2.222656 6.019531 -2.078125 6.625 -2.078125 Z M 6.625 -2.078125 "></path></g></g></g><g fill="#ac3282" fill-opacity="1"><g transform="translate(122.683716, 109.516551)"><g><path d="M 5.671875 0.1875 C 4.390625 0.1875 3.378906 -0.0664062 2.640625 -0.578125 C 1.910156 -1.097656 1.421875 -1.820312 1.171875 -2.75 L 3.203125 -3.671875 L 3.421875 -3.625 C 3.773438 -2.582031 4.519531 -2.0625 5.65625 -2.0625 C 6.539062 -2.0625 7.210938 -2.425781 7.671875 -3.15625 C 8.128906 -3.894531 8.359375 -5 8.359375 -6.46875 L 8.171875 -6.53125 C 7.859375 -5.945312 7.453125 -5.5 6.953125 -5.1875 C 6.460938 -4.882812 5.820312 -4.734375 5.03125 -4.734375 C 4.21875 -4.734375 3.503906 -4.910156 2.890625 -5.265625 C 2.273438 -5.628906 1.796875 -6.144531 1.453125 -6.8125 C 1.117188 -7.476562 0.953125 -8.257812 0.953125 -9.15625 C 0.953125 -10.09375 1.148438 -10.90625 1.546875 -11.59375 C 1.941406 -12.289062 2.503906 -12.828125 3.234375 -13.203125 C 3.960938 -13.578125 4.8125 -13.765625 5.78125 -13.765625 C 7.457031 -13.765625 8.765625 -13.234375 9.703125 -12.171875 C 10.648438 -11.109375 11.125 -9.398438 11.125 -7.046875 C 11.125 -5.421875 10.90625 -4.066406 10.46875 -2.984375 C 10.03125 -1.910156 9.40625 -1.113281 8.59375 -0.59375 C 7.78125 -0.0703125 6.804688 0.1875 5.671875 0.1875 Z M 5.859375 -6.9375 C 6.546875 -6.9375 7.09375 -7.140625 7.5 -7.546875 C 7.90625 -7.960938 8.109375 -8.515625 8.109375 -9.203125 C 8.109375 -9.898438 7.90625 -10.453125 7.5 -10.859375 C 7.101562 -11.265625 6.554688 -11.46875 5.859375 -11.46875 C 5.160156 -11.46875 4.613281 -11.269531 4.21875 -10.875 C 3.832031 -10.476562 3.640625 -9.921875 3.640625 -9.203125 C 3.640625 -8.484375 3.832031 -7.925781 4.21875 -7.53125 C 4.613281 -7.132812 5.160156 -6.9375 5.859375 -6.9375 Z M 5.859375 -6.9375 "></path></g></g></g><g fill="#ac3282" fill-opacity="1"><g transform="translate(134.945843, 109.516551)"><g><path d="M 0.71875 0 L 0.71875 -2.21875 L 3.984375 -2.21875 L 3.984375 -10.65625 L 3.78125 -10.71875 C 3.3125 -10.488281 2.851562 -10.304688 2.40625 -10.171875 C 1.957031 -10.046875 1.445312 -9.945312 0.875 -9.875 L 0.875 -12.171875 C 2.375 -12.484375 3.585938 -12.945312 4.515625 -13.5625 L 6.640625 -13.5625 L 6.640625 -2.21875 L 9.5625 -2.21875 L 9.5625 0 Z M 0.71875 0 "></path></g></g></g><g fill="#ac3282" fill-opacity="1"><g transform="translate(144.954044, 109.516551)"><g><path d="M 0.71875 0 L 0.71875 -2.21875 L 3.984375 -2.21875 L 3.984375 -10.65625 L 3.78125 -10.71875 C 3.3125 -10.488281 2.851562 -10.304688 2.40625 -10.171875 C 1.957031 -10.046875 1.445312 -9.945312 0.875 -9.875 L 0.875 -12.171875 C 2.375 -12.484375 3.585938 -12.945312 4.515625 -13.5625 L 6.640625 -13.5625 L 6.640625 -2.21875 L 9.5625 -2.21875 L 9.5625 0 Z M 0.71875 0 "></path></g></g></g><g fill="#ac3282" fill-opacity="1"><g transform="translate(154.962245, 109.516551)"><g><path d="M 0.71875 0 L 0.71875 -2.21875 L 3.984375 -2.21875 L 3.984375 -10.65625 L 3.78125 -10.71875 C 3.3125 -10.488281 2.851562 -10.304688 2.40625 -10.171875 C 1.957031 -10.046875 1.445312 -9.945312 0.875 -9.875 L 0.875 -12.171875 C 2.375 -12.484375 3.585938 -12.945312 4.515625 -13.5625 L 6.640625 -13.5625 L 6.640625 -2.21875 L 9.5625 -2.21875 L 9.5625 0 Z M 0.71875 0 "></path></g></g></g><g fill="#ac3282" fill-opacity="1"><g transform="translate(164.970446, 109.516551)"><g><path d="M 0.71875 0 L 0.71875 -2.21875 L 3.984375 -2.21875 L 3.984375 -10.65625 L 3.78125 -10.71875 C 3.3125 -10.488281 2.851562 -10.304688 2.40625 -10.171875 C 1.957031 -10.046875 1.445312 -9.945312 0.875 -9.875 L 0.875 -12.171875 C 2.375 -12.484375 3.585938 -12.945312 4.515625 -13.5625 L 6.640625 -13.5625 L 6.640625 -2.21875 L 9.5625 -2.21875 L 9.5625 0 Z M 0.71875 0 "></path></g></g></g><g fill="#ac3282" fill-opacity="1"><g transform="translate(174.978647, 109.516551)"><g><path d="M 9.21875 0 L 6.640625 0 L 6.640625 -2.953125 L 0.46875 -2.953125 L 0.46875 -5.109375 L 5.78125 -13.5625 L 9.21875 -13.5625 L 9.21875 -5.109375 L 11.296875 -5.109375 L 11.296875 -2.953125 L 9.21875 -2.953125 Z M 3.203125 -5.3125 L 3.296875 -5.109375 L 6.640625 -5.109375 L 6.640625 -10.359375 L 6.421875 -10.40625 Z M 3.203125 -5.3125 "></path></g></g></g><g fill="#ac3282" fill-opacity="1"><g transform="translate(186.795553, 109.516551)"><g><path d="M 6.484375 0.1875 C 5.460938 0.1875 4.550781 -0.046875 3.75 -0.515625 C 2.945312 -0.984375 2.3125 -1.726562 1.84375 -2.75 C 1.375 -3.769531 1.140625 -5.070312 1.140625 -6.65625 C 1.140625 -8.257812 1.382812 -9.59375 1.875 -10.65625 C 2.375 -11.71875 3.050781 -12.5 3.90625 -13 C 4.769531 -13.507812 5.753906 -13.765625 6.859375 -13.765625 C 7.773438 -13.765625 8.566406 -13.628906 9.234375 -13.359375 C 9.898438 -13.085938 10.421875 -12.695312 10.796875 -12.1875 L 9.46875 -10.5 L 9.234375 -10.5 C 8.671875 -11.164062 7.878906 -11.5 6.859375 -11.5 C 4.929688 -11.5 3.941406 -10.085938 3.890625 -7.265625 L 4.09375 -7.203125 C 4.40625 -7.785156 4.816406 -8.226562 5.328125 -8.53125 C 5.847656 -8.832031 6.503906 -8.984375 7.296875 -8.984375 C 8.128906 -8.984375 8.851562 -8.804688 9.46875 -8.453125 C 10.082031 -8.097656 10.550781 -7.585938 10.875 -6.921875 C 11.207031 -6.265625 11.375 -5.484375 11.375 -4.578125 C 11.375 -3.585938 11.175781 -2.734375 10.78125 -2.015625 C 10.394531 -1.296875 9.832031 -0.75 9.09375 -0.375 C 8.351562 0 7.484375 0.1875 6.484375 0.1875 Z M 6.421875 -2.09375 C 7.128906 -2.09375 7.679688 -2.296875 8.078125 -2.703125 C 8.472656 -3.117188 8.671875 -3.695312 8.671875 -4.4375 C 8.671875 -5.1875 8.472656 -5.765625 8.078125 -6.171875 C 7.679688 -6.585938 7.128906 -6.796875 6.421875 -6.796875 C 5.972656 -6.796875 5.578125 -6.695312 5.234375 -6.5 C 4.890625 -6.3125 4.625 -6.039062 4.4375 -5.6875 C 4.25 -5.332031 4.15625 -4.914062 4.15625 -4.4375 C 4.15625 -3.71875 4.359375 -3.144531 4.765625 -2.71875 C 5.171875 -2.300781 5.722656 -2.09375 6.421875 -2.09375 Z M 6.421875 -2.09375 "></path></g></g></g><g fill="#ac3282" fill-opacity="1"><g transform="translate(199.113332, 109.516551)"><g><path d="M 5.53125 0.1875 C 4.070312 0.1875 2.914062 -0.117188 2.0625 -0.734375 C 1.207031 -1.347656 0.671875 -2.21875 0.453125 -3.34375 L 2.484375 -4.28125 L 2.6875 -4.25 C 2.914062 -3.5 3.242188 -2.953125 3.671875 -2.609375 C 4.097656 -2.265625 4.6875 -2.09375 5.4375 -2.09375 C 6.164062 -2.09375 6.722656 -2.265625 7.109375 -2.609375 C 7.492188 -2.953125 7.6875 -3.445312 7.6875 -4.09375 C 7.6875 -4.726562 7.492188 -5.210938 7.109375 -5.546875 C 6.734375 -5.890625 6.175781 -6.0625 5.4375 -6.0625 L 3.390625 -6.0625 L 3.390625 -8.15625 L 5.171875 -8.15625 C 5.785156 -8.15625 6.269531 -8.304688 6.625 -8.609375 C 6.976562 -8.910156 7.15625 -9.34375 7.15625 -9.90625 C 7.15625 -10.46875 6.988281 -10.890625 6.65625 -11.171875 C 6.320312 -11.453125 5.859375 -11.59375 5.265625 -11.59375 C 4.648438 -11.59375 4.109375 -11.445312 3.640625 -11.15625 C 3.179688 -10.875 2.8125 -10.492188 2.53125 -10.015625 L 2.3125 -9.96875 L 0.90625 -11.609375 C 1.375 -12.253906 1.984375 -12.773438 2.734375 -13.171875 C 3.484375 -13.566406 4.375 -13.765625 5.40625 -13.765625 C 6.832031 -13.765625 7.914062 -13.46875 8.65625 -12.875 C 9.40625 -12.28125 9.78125 -11.441406 9.78125 -10.359375 C 9.78125 -9.710938 9.628906 -9.15625 9.328125 -8.6875 C 9.023438 -8.226562 8.59375 -7.832031 8.03125 -7.5 L 8.03125 -7.3125 C 9.59375 -6.757812 10.375 -5.644531 10.375 -3.96875 C 10.375 -3.125 10.191406 -2.390625 9.828125 -1.765625 C 9.472656 -1.140625 8.929688 -0.65625 8.203125 -0.3125 C 7.484375 0.0195312 6.59375 0.1875 5.53125 0.1875 Z M 5.53125 0.1875 "></path></g></g></g><g fill="#ac3282" fill-opacity="1"><g transform="translate(37.869106, 137.699997)"><g><path d="M 7 0.1875 C 5.820312 0.1875 4.785156 -0.0507812 3.890625 -0.53125 C 2.992188 -1.007812 2.289062 -1.742188 1.78125 -2.734375 C 1.269531 -3.722656 1.015625 -4.953125 1.015625 -6.421875 C 1.015625 -7.890625 1.269531 -9.117188 1.78125 -10.109375 C 2.289062 -11.097656 2.992188 -11.832031 3.890625 -12.3125 C 4.785156 -12.789062 5.820312 -13.03125 7 -13.03125 C 8.175781 -13.03125 9.210938 -12.789062 10.109375 -12.3125 C 11.015625 -11.84375 11.71875 -11.109375 12.21875 -10.109375 C 12.726562 -9.117188 12.984375 -7.890625 12.984375 -6.421875 C 12.984375 -4.953125 12.726562 -3.722656 12.21875 -2.734375 C 11.71875 -1.742188 11.015625 -1.007812 10.109375 -0.53125 C 9.210938 -0.0507812 8.175781 0.1875 7 0.1875 Z M 7 -2.015625 C 8.09375 -2.015625 8.925781 -2.363281 9.5 -3.0625 C 10.070312 -3.769531 10.359375 -4.890625 10.359375 -6.421875 C 10.359375 -7.960938 10.070312 -9.082031 9.5 -9.78125 C 8.925781 -10.488281 8.09375 -10.84375 7 -10.84375 C 5.90625 -10.84375 5.066406 -10.488281 4.484375 -9.78125 C 3.910156 -9.082031 3.625 -7.960938 3.625 -6.421875 C 3.625 -4.890625 3.910156 -3.769531 4.484375 -3.0625 C 5.066406 -2.363281 5.90625 -2.015625 7 -2.015625 Z M 7 -2.015625 "></path></g></g><g transform="translate(51.870082, 137.699997)"><g><path d="M 4.125 0 L 1.671875 0 L 1.671875 -12.84375 L 4.578125 -12.84375 L 9.734375 -4.578125 L 9.96875 -4.609375 L 9.96875 -12.84375 L 12.40625 -12.84375 L 12.40625 0 L 9.8125 0 L 4.34375 -8.84375 L 4.125 -8.8125 Z M 4.125 0 "></path></g></g><g transform="translate(65.967738, 137.699997)"><g></g></g><g transform="translate(70.212855, 137.699997)"><g><path d="M 6.140625 0 L 3.296875 0 L 0.359375 -12.84375 L 2.890625 -12.84375 L 4.828125 -3.8125 L 5.046875 -3.8125 L 7.34375 -12.84375 L 9.515625 -12.84375 L 11.859375 -3.8125 L 12.078125 -3.8125 L 14.03125 -12.84375 L 16.484375 -12.84375 L 13.546875 0 L 10.703125 0 L 8.453125 -8.28125 L 8.265625 -8.28125 Z M 6.140625 0 "></path></g></g><g transform="translate(87.03512, 137.699997)"><g><path d="M 9.96875 -8.015625 L 9.96875 -12.84375 L 12.5 -12.84375 L 12.5 0 L 9.96875 0 L 9.96875 -5.859375 L 4.203125 -5.859375 L 4.203125 0 L 1.671875 0 L 1.671875 -12.84375 L 4.203125 -12.84375 L 4.203125 -8.015625 Z M 9.96875 -8.015625 "></path></g></g><g transform="translate(101.211877, 137.699997)"><g><path d="M 12.328125 0 L 9.65625 0 L 8.6875 -2.96875 L 3.765625 -2.96875 L 2.796875 0 L 0.1875 0 L 4.625 -12.84375 L 7.890625 -12.84375 Z M 6.109375 -10.171875 L 4.453125 -5.09375 L 7.984375 -5.09375 L 6.328125 -10.171875 Z M 6.109375 -10.171875 "></path></g></g><g transform="translate(113.736291, 137.699997)"><g><path d="M 10.296875 -12.84375 L 10.296875 -10.71875 L 6.59375 -10.71875 L 6.59375 0 L 4.0625 0 L 4.0625 -10.71875 L 0.359375 -10.71875 L 0.359375 -12.84375 Z M 10.296875 -12.84375 "></path></g></g><g transform="translate(124.388634, 137.699997)"><g><path d="M 5.703125 0.1875 C 4.804688 0.1875 4.007812 0.078125 3.3125 -0.140625 C 2.625 -0.359375 2.046875 -0.644531 1.578125 -1 C 1.117188 -1.363281 0.765625 -1.757812 0.515625 -2.1875 L 1.921875 -3.890625 L 2.140625 -3.890625 C 2.523438 -3.316406 3.015625 -2.859375 3.609375 -2.515625 C 4.203125 -2.179688 4.898438 -2.015625 5.703125 -2.015625 C 6.378906 -2.015625 6.890625 -2.15625 7.234375 -2.4375 C 7.578125 -2.726562 7.75 -3.125 7.75 -3.625 C 7.75 -3.9375 7.691406 -4.191406 7.578125 -4.390625 C 7.472656 -4.597656 7.289062 -4.773438 7.03125 -4.921875 C 6.769531 -5.066406 6.421875 -5.191406 5.984375 -5.296875 L 4.328125 -5.671875 C 3.179688 -5.941406 2.320312 -6.378906 1.75 -6.984375 C 1.1875 -7.597656 0.90625 -8.394531 0.90625 -9.375 C 0.90625 -10.101562 1.085938 -10.742188 1.453125 -11.296875 C 1.816406 -11.847656 2.34375 -12.273438 3.03125 -12.578125 C 3.726562 -12.878906 4.5625 -13.03125 5.53125 -13.03125 C 6.519531 -13.03125 7.363281 -12.898438 8.0625 -12.640625 C 8.769531 -12.378906 9.367188 -11.976562 9.859375 -11.4375 L 8.609375 -9.71875 L 8.390625 -9.71875 C 8.023438 -10.101562 7.609375 -10.390625 7.140625 -10.578125 C 6.671875 -10.765625 6.132812 -10.859375 5.53125 -10.859375 C 4.832031 -10.859375 4.300781 -10.734375 3.9375 -10.484375 C 3.570312 -10.242188 3.390625 -9.90625 3.390625 -9.46875 C 3.390625 -9.070312 3.515625 -8.75 3.765625 -8.5 C 4.023438 -8.257812 4.46875 -8.078125 5.09375 -7.953125 L 6.78125 -7.59375 C 8.03125 -7.332031 8.9375 -6.882812 9.5 -6.25 C 10.0625 -5.625 10.34375 -4.800781 10.34375 -3.78125 C 10.34375 -2.976562 10.171875 -2.28125 9.828125 -1.6875 C 9.484375 -1.09375 8.960938 -0.628906 8.265625 -0.296875 C 7.566406 0.0234375 6.710938 0.1875 5.703125 0.1875 Z M 5.703125 0.1875 "></path></g></g><g transform="translate(135.427696, 137.699997)"><g><path d="M 12.328125 0 L 9.65625 0 L 8.6875 -2.96875 L 3.765625 -2.96875 L 2.796875 0 L 0.1875 0 L 4.625 -12.84375 L 7.890625 -12.84375 Z M 6.109375 -10.171875 L 4.453125 -5.09375 L 7.984375 -5.09375 L 6.328125 -10.171875 Z M 6.109375 -10.171875 "></path></g></g><g transform="translate(147.952109, 137.699997)"><g><path d="M 6.640625 -12.84375 C 7.554688 -12.84375 8.335938 -12.675781 8.984375 -12.34375 C 9.640625 -12.007812 10.132812 -11.535156 10.46875 -10.921875 C 10.8125 -10.316406 10.984375 -9.613281 10.984375 -8.8125 C 10.984375 -8.007812 10.8125 -7.304688 10.46875 -6.703125 C 10.132812 -6.097656 9.640625 -5.628906 8.984375 -5.296875 C 8.335938 -4.960938 7.554688 -4.796875 6.640625 -4.796875 L 4.203125 -4.796875 L 4.203125 0 L 1.671875 0 L 1.671875 -12.84375 Z M 6.296875 -6.796875 C 7.710938 -6.796875 8.421875 -7.46875 8.421875 -8.8125 C 8.421875 -10.164062 7.710938 -10.84375 6.296875 -10.84375 L 4.203125 -10.84375 L 4.203125 -6.796875 Z M 6.296875 -6.796875 "></path></g></g><g transform="translate(159.694296, 137.699997)"><g><path d="M 6.640625 -12.84375 C 7.554688 -12.84375 8.335938 -12.675781 8.984375 -12.34375 C 9.640625 -12.007812 10.132812 -11.535156 10.46875 -10.921875 C 10.8125 -10.316406 10.984375 -9.613281 10.984375 -8.8125 C 10.984375 -8.007812 10.8125 -7.304688 10.46875 -6.703125 C 10.132812 -6.097656 9.640625 -5.628906 8.984375 -5.296875 C 8.335938 -4.960938 7.554688 -4.796875 6.640625 -4.796875 L 4.203125 -4.796875 L 4.203125 0 L 1.671875 0 L 1.671875 -12.84375 Z M 6.296875 -6.796875 C 7.710938 -6.796875 8.421875 -7.46875 8.421875 -8.8125 C 8.421875 -10.164062 7.710938 -10.84375 6.296875 -10.84375 L 4.203125 -10.84375 L 4.203125 -6.796875 Z M 6.296875 -6.796875 "></path></g></g></g></svg>